<mxfile host="app.diagrams.net" modified="2020-11-20T17:04:01.189Z" agent="5.0 (Windows)" etag="8hie8qfpyQWxp0BjN2Jj" version="13.10.0" type="github">
  <diagram id="mxGWfV9tBIiYg5eaF4Lv" name="Page-1">
    <mxGraphModel dx="1422" dy="831" grid="1" gridSize="10" guides="1" tooltips="1" connect="1" arrows="1" fold="1" page="1" pageScale="1" pageWidth="827" pageHeight="1169" math="0" shadow="0">
      <root>
        <mxCell id="0" />
        <mxCell id="1" parent="0" />
        <mxCell id="f3xQXIGnD9KrdJ0zW6e2-2" value="" style="rounded=1;whiteSpace=wrap;html=1;fillColor=#C7C7C7;" vertex="1" parent="1">
          <mxGeometry x="270" y="260" width="290" height="160" as="geometry" />
        </mxCell>
        <mxCell id="f3xQXIGnD9KrdJ0zW6e2-8" style="edgeStyle=orthogonalEdgeStyle;rounded=0;orthogonalLoop=1;jettySize=auto;html=1;exitX=0.5;exitY=0;exitDx=0;exitDy=0;entryX=0;entryY=0.5;entryDx=0;entryDy=0;endArrow=none;endFill=0;" edge="1" parent="1" source="f3xQXIGnD9KrdJ0zW6e2-1" target="f3xQXIGnD9KrdJ0zW6e2-3">
          <mxGeometry relative="1" as="geometry" />
        </mxCell>
        <mxCell id="f3xQXIGnD9KrdJ0zW6e2-9" style="edgeStyle=orthogonalEdgeStyle;rounded=0;orthogonalLoop=1;jettySize=auto;html=1;exitX=1;exitY=0.5;exitDx=0;exitDy=0;entryX=0;entryY=0.5;entryDx=0;entryDy=0;endArrow=none;endFill=0;" edge="1" parent="1" source="f3xQXIGnD9KrdJ0zW6e2-1" target="f3xQXIGnD9KrdJ0zW6e2-4">
          <mxGeometry relative="1" as="geometry" />
        </mxCell>
        <mxCell id="f3xQXIGnD9KrdJ0zW6e2-1" value="&lt;font style=&quot;font-size: 16px&quot;&gt;Nucleo&lt;/font&gt;" style="rounded=1;whiteSpace=wrap;html=1;fillColor=#3399FF;" vertex="1" parent="1">
          <mxGeometry x="374" y="320" width="80" height="40" as="geometry" />
        </mxCell>
        <mxCell id="f3xQXIGnD9KrdJ0zW6e2-3" value="Temp sensor" style="rounded=1;whiteSpace=wrap;html=1;fillColor=#FFFFFF;" vertex="1" parent="1">
          <mxGeometry x="470" y="270" width="80" height="40" as="geometry" />
        </mxCell>
        <mxCell id="f3xQXIGnD9KrdJ0zW6e2-10" style="edgeStyle=orthogonalEdgeStyle;rounded=0;orthogonalLoop=1;jettySize=auto;html=1;exitX=0.5;exitY=1;exitDx=0;exitDy=0;entryX=0.5;entryY=0;entryDx=0;entryDy=0;endArrow=none;endFill=0;" edge="1" parent="1" source="f3xQXIGnD9KrdJ0zW6e2-4" target="f3xQXIGnD9KrdJ0zW6e2-6">
          <mxGeometry relative="1" as="geometry" />
        </mxCell>
        <mxCell id="f3xQXIGnD9KrdJ0zW6e2-4" value="Can Tranciever" style="rounded=1;whiteSpace=wrap;html=1;fillColor=#FF66FF;" vertex="1" parent="1">
          <mxGeometry x="470" y="320" width="80" height="40" as="geometry" />
        </mxCell>
        <mxCell id="f3xQXIGnD9KrdJ0zW6e2-7" style="edgeStyle=orthogonalEdgeStyle;rounded=0;orthogonalLoop=1;jettySize=auto;html=1;entryX=0;entryY=0.5;entryDx=0;entryDy=0;exitX=0.5;exitY=0;exitDx=0;exitDy=0;endArrow=none;endFill=0;" edge="1" parent="1" source="f3xQXIGnD9KrdJ0zW6e2-5" target="f3xQXIGnD9KrdJ0zW6e2-1">
          <mxGeometry relative="1" as="geometry" />
        </mxCell>
        <mxCell id="f3xQXIGnD9KrdJ0zW6e2-5" value="&lt;div&gt;PWR&lt;/div&gt;connector" style="rounded=1;whiteSpace=wrap;html=1;fillColor=#FF0000;" vertex="1" parent="1">
          <mxGeometry x="280" y="370" width="80" height="40" as="geometry" />
        </mxCell>
        <mxCell id="f3xQXIGnD9KrdJ0zW6e2-6" value="genuine can connector" style="rounded=1;whiteSpace=wrap;html=1;fillColor=#FF66FF;" vertex="1" parent="1">
          <mxGeometry x="470" y="370" width="80" height="40" as="geometry" />
        </mxCell>
        <mxCell id="f3xQXIGnD9KrdJ0zW6e2-11" value="&lt;div&gt;&lt;font style=&quot;font-size: 16px&quot;&gt;Motherboard&lt;/font&gt;&lt;/div&gt;" style="text;html=1;align=center;verticalAlign=middle;resizable=0;points=[];autosize=1;" vertex="1" parent="1">
          <mxGeometry x="359" y="270" width="110" height="20" as="geometry" />
        </mxCell>
      </root>
    </mxGraphModel>
  </diagram>
</mxfile>
